<?xml version="1.0" standalone="no"?>
<!DOCTYPE svg PUBLIC "-//W3C//DTD SVG 20010904//EN"
 "http://www.w3.org/TR/2001/REC-SVG-20010904/DTD/svg10.dtd">
<svg version="1.0" xmlns="http://www.w3.org/2000/svg"
 width="2081.000000pt" height="796.000000pt" viewBox="0 0 2081.000000 796.000000"
 preserveAspectRatio="xMidYMid meet">

<g transform="translate(0.000000,796.000000) scale(0.100000,-0.100000)"
fill="#000000" stroke="none">
<path d="M4720 5975 l0 -125 2400 0 2400 0 0 125 0 125 -2400 0 -2400 0 0
-125z"/>
<path d="M4720 5150 l0 -130 3670 0 3670 0 0 130 0 130 -3670 0 -3670 0 0
-130z"/>
<path d="M4720 4325 l0 -125 4955 0 4955 0 0 125 0 125 -4955 0 -4955 0 0
-125z"/>
<path d="M15071 3856 c-18 -6 -51 -27 -73 -45 -141 -119 -80 -351 103 -390
189 -41 338 155 249 329 -49 95 -175 144 -279 106z m130 -28 c86 -29 133 -96
133 -188 -1 -113 -78 -190 -191 -190 -205 0 -251 306 -57 375 48 17 72 18 115
3z"/>
<path d="M15060 3646 c0 -129 1 -136 20 -136 18 0 20 7 20 55 0 52 1 55 24 55
19 0 32 -12 58 -55 24 -40 39 -55 56 -55 26 0 26 0 -21 68 -16 24 -27 44 -25
45 56 29 73 60 57 105 -13 37 -24 42 -116 49 l-73 6 0 -137z m145 54 l0 -35
-52 -3 -53 -3 0 41 0 41 53 -3 52 -3 0 -35z"/>
<path d="M11680 3558 c-35 -95 -97 -264 -138 -376 -41 -112 -82 -212 -91 -223
-11 -14 -34 -23 -71 -27 -53 -7 -55 -8 -58 -39 l-3 -33 180 0 181 0 0 23 c0
34 -19 47 -66 47 -24 0 -46 4 -49 10 -3 5 13 68 35 140 l41 130 113 0 113 0
42 -122 c23 -68 41 -129 41 -135 0 -8 -14 -13 -38 -13 -49 0 -75 -19 -70 -51
l3 -24 182 -3 c176 -2 182 -2 188 18 9 29 -10 49 -61 61 -50 13 -33 -23 -185
394 -50 138 -104 283 -121 323 -30 71 -30 72 -67 72 l-37 0 -64 -172z m114
-154 c20 -53 36 -100 36 -105 0 -5 -36 -9 -81 -9 -93 0 -88 -15 -37 128 17 45
33 82 38 82 4 0 24 -43 44 -96z"/>
<path d="M12663 3708 c-12 -15 -63 -216 -63 -246 0 -12 9 -23 22 -28 22 -7 27
-3 115 99 l31 37 86 0 86 0 -2 -312 -3 -313 -64 -17 c-65 -18 -81 -29 -81 -60
0 -22 -16 -21 238 -22 l213 -2 -3 30 c-3 32 -8 35 -95 56 l-43 11 0 193 c0
106 -3 248 -7 314 l-6 122 95 0 c108 0 118 -6 137 -76 13 -49 32 -68 59 -59
27 8 32 32 32 152 0 122 -3 133 -41 133 -22 0 -32 -7 -44 -30 l-16 -30 -277 0
-278 0 -22 30 c-24 31 -53 39 -69 18z"/>
<path d="M7680 3699 c-66 -13 -161 -63 -219 -115 -62 -56 -117 -162 -133 -255
-29 -178 73 -370 234 -444 142 -64 387 -57 530 16 47 24 58 60 58 186 l0 92
51 3 c59 3 82 25 63 55 -10 16 -33 18 -214 21 -156 2 -205 -1 -212 -10 -23
-37 8 -68 68 -68 78 0 84 -8 84 -106 0 -76 -3 -87 -24 -108 -14 -15 -46 -29
-82 -36 -145 -30 -281 47 -353 200 -23 48 -26 68 -26 155 0 83 4 109 23 149
57 125 143 185 278 194 131 8 206 -33 263 -147 19 -36 23 -39 48 -32 28 7 28
8 25 87 -2 43 -6 87 -8 96 -6 19 -92 54 -168 69 -59 11 -224 10 -286 -2z"/>
<path d="M6250 3693 c-54 -8 -167 -55 -211 -87 -53 -39 -116 -129 -141 -201
-24 -70 -23 -186 2 -268 36 -116 129 -216 238 -258 132 -49 288 -46 407 10 86
40 175 126 211 203 27 58 29 72 29 178 -1 143 -20 199 -101 288 -100 111 -264
162 -434 135z m205 -97 c65 -30 131 -104 150 -169 49 -166 14 -363 -78 -443
-68 -58 -186 -80 -279 -52 -134 40 -230 236 -200 410 23 131 90 231 176 262
66 23 172 20 231 -8z"/>
<path d="M9105 3688 c-78 -14 -186 -71 -233 -122 -193 -209 -136 -550 111
-671 194 -95 420 -60 571 88 73 72 104 141 113 249 26 308 -233 519 -562 456z
m230 -92 c126 -59 186 -202 164 -391 -15 -134 -53 -202 -138 -249 -128 -69
-289 -37 -365 73 -67 97 -93 247 -61 356 48 167 126 233 280 234 54 1 82 -5
120 -23z"/>
<path d="M4660 3654 c0 -35 -2 -33 93 -50 l37 -6 -2 -326 -3 -327 -60 -13
c-59 -13 -85 -31 -85 -61 0 -14 41 -16 365 -16 l365 0 5 30 c2 17 11 69 20
116 20 113 20 109 -19 109 -27 0 -36 -5 -42 -22 -12 -40 -63 -106 -98 -127
-29 -18 -49 -21 -160 -21 l-126 0 0 329 0 330 58 6 c31 4 62 8 68 10 15 5 24
65 10 66 -6 1 -104 2 -218 3 l-208 3 0 -33z"/>
<path d="M10170 3655 c0 -33 1 -34 63 -47 l62 -13 3 -175 c2 -96 0 -243 -3
-327 l-7 -151 -61 -11 c-62 -11 -77 -21 -77 -56 0 -20 7 -20 363 -20 l364 0
16 105 c10 58 20 115 23 128 6 20 3 22 -29 22 -32 0 -37 -4 -57 -45 -12 -25
-42 -63 -67 -85 l-46 -40 -133 0 -134 0 0 329 0 329 68 8 c37 3 70 12 74 18
12 18 9 56 -4 57 -7 1 -104 2 -215 4 l-203 2 0 -32z"/>
<path d="M13881 3677 c-30 -30 -3 -67 49 -67 19 0 40 -4 47 -8 9 -6 13 -88 13
-327 1 -176 1 -326 1 -332 -1 -8 -17 -13 -44 -13 -54 0 -80 -18 -75 -51 l3
-24 377 0 c255 0 381 4 388 11 10 10 31 139 34 209 1 27 -2 30 -29 30 -26 0
-34 -7 -65 -64 -57 -104 -62 -106 -258 -106 l-167 0 -3 152 -3 151 118 4 c65
2 125 0 135 -4 9 -4 26 -37 38 -73 20 -61 24 -66 49 -63 l26 3 0 170 0 170
-26 3 c-33 4 -48 -15 -57 -69 l-7 -44 -105 -5 c-58 -3 -120 -3 -137 -1 l-33 3
0 133 0 133 133 6 c177 9 184 7 225 -77 26 -55 36 -67 56 -67 31 0 34 13 32
123 -1 59 -6 91 -14 96 -21 13 -688 11 -701 -2z"/>
<path d="M1530 2459 c-52 -5 -207 -23 -345 -39 -137 -16 -288 -32 -333 -36
-94 -8 -113 -23 -71 -57 22 -18 34 -19 154 -13 72 4 218 17 325 30 107 12 197
21 199 19 3 -2 -3 -77 -13 -166 -32 -298 -46 -480 -52 -697 l-7 -215 24 -28
c13 -15 35 -28 49 -29 l25 -3 -3 230 c-3 229 7 398 44 754 16 147 19 161 38
167 12 4 147 10 301 13 l280 6 -3 25 c-1 13 -7 29 -13 35 -13 13 -473 16 -599
4z"/>
<path d="M3834 2340 c-37 -15 -102 -100 -133 -175 -60 -144 -82 -246 -88 -410
-8 -223 17 -346 85 -419 88 -94 253 -85 351 18 19 20 38 36 41 36 4 0 12 -17
18 -38 24 -81 102 -113 179 -73 45 22 72 54 97 115 15 36 18 38 50 33 48 -8
115 10 154 40 38 28 76 102 66 127 -10 25 -20 19 -48 -29 -37 -62 -93 -89
-157 -76 -33 7 -33 7 -30 62 5 114 -49 219 -113 219 -40 0 -85 -27 -92 -55 -3
-13 -14 -27 -24 -30 -26 -8 -55 -59 -75 -130 -48 -165 -213 -271 -320 -205
-20 12 -43 33 -51 45 -14 22 -12 27 29 91 128 199 204 417 214 616 5 97 3 125
-11 163 -28 72 -80 100 -142 75z m75 -89 c18 -33 22 -109 11 -190 -12 -91 -66
-289 -104 -382 -32 -81 -108 -211 -117 -202 -30 31 -38 275 -13 404 50 267
171 467 223 370z m428 -581 c7 -14 13 -52 13 -85 l0 -60 -35 36 c-23 22 -38
48 -42 72 -10 63 37 91 64 37z m-91 -126 c16 -25 43 -56 61 -70 l33 -25 -16
-37 c-34 -83 -99 -116 -140 -71 -27 30 -25 137 4 202 12 26 23 47 25 47 2 0
17 -21 33 -46z"/>
<path d="M17664 2340 c-66 -26 -139 -159 -192 -347 -25 -92 -27 -110 -26 -293
0 -153 4 -206 17 -244 18 -55 14 -67 -34 -92 -74 -38 -129 0 -129 90 0 28 5
67 10 86 8 29 7 37 -7 48 -36 26 -52 11 -82 -74 -54 -156 -119 -215 -157 -142
-35 68 4 234 71 301 50 49 115 31 115 -32 0 -11 5 -23 10 -26 19 -12 40 17 40
54 0 46 -32 79 -83 88 -74 12 -177 -70 -208 -165 -7 -20 -29 -62 -50 -93 -82
-122 -184 -178 -263 -145 l-36 15 49 73 c59 88 101 192 101 248 0 33 -6 48
-29 71 -58 57 -127 24 -182 -87 -27 -54 -33 -81 -37 -149 -3 -47 0 -97 6 -115
11 -30 10 -32 -24 -46 -76 -32 -124 20 -124 134 0 34 7 79 15 99 19 46 19 97
0 113 -19 15 -73 16 -88 1 -23 -23 -40 -12 -33 19 9 49 -26 102 -56 84 -18
-12 -38 -73 -38 -118 0 -29 -10 -65 -27 -100 -25 -51 -26 -86 -3 -86 5 0 23
24 40 54 29 51 33 54 78 59 26 3 48 4 49 3 1 -1 -2 -20 -8 -42 -6 -21 -9 -71
-7 -110 8 -115 54 -173 147 -182 38 -3 58 0 84 15 33 20 34 20 60 1 14 -10 50
-24 80 -30 78 -17 134 6 210 84 40 42 57 54 57 41 1 -37 39 -102 69 -117 51
-27 71 -20 132 43 l56 59 16 -34 c42 -87 152 -97 235 -21 l22 21 28 -27 c63
-61 169 -75 257 -33 93 43 215 204 215 284 0 17 -3 32 -8 32 -4 0 -27 -35 -52
-77 -52 -88 -119 -161 -172 -186 -71 -33 -161 -13 -202 45 -13 18 -11 24 11
56 66 97 162 314 203 462 31 108 39 294 16 355 -28 72 -80 100 -142 75z m75
-89 c18 -33 22 -109 11 -190 -12 -91 -66 -289 -104 -382 -32 -81 -108 -211
-117 -202 -30 31 -38 275 -13 404 50 267 171 467 223 370z m-995 -547 c7 -18
-7 -85 -30 -139 -20 -50 -74 -128 -82 -121 -11 12 -1 97 18 160 29 93 77 145
94 100z"/>
<path d="M2633 2298 c-64 -66 -128 -246 -160 -448 l-17 -110 -28 0 c-69 0
-160 -77 -203 -172 -14 -31 -33 -59 -43 -63 -44 -18 -72 -22 -103 -16 -33 7
-33 7 -30 62 5 114 -49 219 -113 219 -39 0 -85 -27 -92 -54 -3 -13 -16 -28
-28 -34 -54 -24 -105 -204 -86 -299 22 -106 100 -149 187 -104 45 22 72 54 96
114 15 36 18 37 59 35 24 -2 59 1 79 5 l36 7 5 -50 c6 -60 34 -95 89 -111 52
-16 99 2 158 61 l49 49 23 -37 c32 -48 78 -74 133 -74 54 0 98 22 152 73 l41
40 11 -39 c42 -140 212 -114 278 44 14 34 18 36 49 31 47 -8 114 10 153 40 38
28 76 102 66 127 -10 25 -20 19 -48 -29 -37 -62 -93 -89 -157 -76 -33 7 -33 7
-30 62 5 114 -49 219 -113 219 -40 0 -85 -27 -92 -55 -3 -13 -14 -27 -24 -30
-27 -9 -55 -59 -79 -142 -18 -59 -31 -82 -74 -126 -67 -70 -119 -89 -168 -61
-18 11 -43 39 -55 63 l-23 43 33 66 c115 230 220 635 192 745 -16 64 -74 76
-123 25z m53 -130 c-16 -166 -94 -443 -158 -558 l-19 -35 5 115 c8 198 78 458
144 533 28 32 35 20 28 -55z m-719 -498 c7 -14 13 -52 13 -85 l0 -60 -35 36
c-23 22 -38 48 -42 72 -10 63 37 91 64 37z m1110 0 c7 -14 13 -52 13 -85 l0
-60 -35 36 c-23 22 -38 48 -42 72 -10 63 37 91 64 37z m-633 -12 c3 -7 7 -54
10 -103 l5 -90 -37 -50 c-43 -57 -92 -89 -122 -80 -12 4 -24 21 -31 44 -29 98
66 291 143 291 16 0 30 -6 32 -12z m-568 -114 c16 -25 43 -56 61 -70 l33 -25
-16 -37 c-34 -83 -99 -116 -140 -71 -27 30 -25 137 4 202 12 26 23 47 25 47 2
0 17 -21 33 -46z m1110 0 c16 -25 43 -56 61 -70 l33 -25 -16 -37 c-34 -83 -99
-116 -140 -71 -27 30 -25 137 4 202 12 26 23 47 25 47 2 0 17 -21 33 -46z"/>
<path d="M8553 2298 c-64 -66 -128 -246 -160 -448 l-17 -110 -28 0 c-72 0
-158 -76 -209 -185 -47 -99 -136 -187 -205 -204 -43 -10 -57 -10 -88 3 l-36
15 53 79 c58 85 97 183 97 245 0 29 -7 45 -29 68 -58 58 -127 24 -183 -88 -31
-64 -33 -73 -34 -183 l0 -115 -44 0 c-64 0 -85 32 -83 131 0 41 4 99 8 129 6
49 4 54 -16 60 -31 10 -44 -9 -68 -98 -38 -140 -99 -230 -141 -207 -10 5 -20
17 -24 26 -12 32 -6 122 15 203 24 94 21 114 -18 109 -23 -3 -29 -11 -45 -63
-36 -118 -42 -186 -24 -248 20 -67 52 -97 107 -97 42 0 86 36 117 97 l18 35
19 -42 c35 -78 107 -114 179 -90 32 10 39 9 66 -10 16 -11 54 -26 84 -32 71
-15 133 7 198 71 l47 47 6 -33 c7 -38 53 -80 99 -88 46 -9 97 15 149 69 l44
45 24 -37 c68 -103 199 -98 296 12 l40 45 12 -39 c17 -57 49 -90 94 -97 37 -6
41 -3 96 55 l58 60 16 -34 c9 -19 31 -43 49 -54 70 -42 143 -17 232 81 31 34
56 56 56 47 0 -29 60 -104 102 -128 35 -21 57 -25 118 -25 63 0 82 4 120 27
86 50 176 160 198 242 10 36 7 66 -7 66 -3 0 -26 -35 -51 -77 -102 -172 -220
-240 -323 -186 l-32 16 29 8 c37 10 64 35 87 81 25 48 24 75 -5 172 -13 45
-27 106 -31 137 -7 67 -30 95 -69 85 -26 -7 -26 -4 -61 -149 -10 -37 -21 -70
-26 -73 -5 -3 -27 -37 -50 -75 -103 -172 -213 -243 -268 -173 -23 30 -28 104
-11 164 8 29 7 37 -7 48 -36 26 -52 11 -82 -74 -54 -156 -119 -215 -157 -142
-35 68 4 234 71 301 50 49 115 31 115 -32 0 -11 5 -23 10 -26 19 -12 40 17 40
54 0 76 -82 111 -164 71 -58 -28 -103 -84 -133 -168 -41 -111 -118 -201 -193
-223 -33 -10 -43 -9 -71 7 -18 11 -43 39 -55 63 l-23 43 33 66 c115 230 220
635 192 745 -16 64 -74 76 -123 25z m53 -130 c-16 -166 -94 -443 -158 -558
l-19 -35 5 115 c8 198 78 458 144 533 28 32 35 20 28 -55z m-712 -464 c14 -35
-45 -199 -92 -254 -20 -23 -21 -24 -23 -5 -3 50 4 104 22 160 28 92 76 143 93
99z m1642 -46 c21 -41 27 -68 28 -121 0 -59 -3 -70 -24 -92 -14 -13 -37 -27
-53 -30 -25 -7 -29 -4 -48 41 -17 37 -19 51 -10 63 24 34 61 118 67 154 4 20
8 37 10 37 2 0 16 -24 30 -52z m-1172 0 c3 -7 7 -54 10 -103 l5 -90 -37 -50
c-43 -57 -92 -89 -122 -80 -12 4 -24 21 -31 44 -29 98 66 291 143 291 16 0 30
-6 32 -12z"/>
<path d="M10156 1831 c-27 -30 -18 -83 16 -95 22 -8 32 -6 48 9 22 20 27 74 8
93 -18 18 -53 15 -72 -7z"/>
<path d="M12506 1831 c-27 -30 -18 -83 16 -95 22 -8 32 -6 48 9 22 20 27 74 8
93 -18 18 -53 15 -72 -7z"/>
<path d="M15516 1835 c-8 -9 -18 -32 -21 -53 -12 -67 -36 -144 -54 -171 -10
-14 -37 -57 -61 -94 -85 -135 -191 -198 -274 -163 l-36 15 49 73 c59 88 101
192 101 248 0 33 -6 48 -29 71 -58 58 -127 24 -183 -88 -31 -63 -33 -75 -33
-168 0 -151 34 -203 149 -227 79 -17 133 6 214 90 34 35 62 60 62 55 0 -25 63
-101 102 -123 35 -21 57 -25 118 -25 63 0 82 4 120 27 86 50 176 160 198 242
10 36 7 66 -7 66 -3 0 -26 -35 -51 -77 -53 -90 -120 -161 -174 -187 -47 -22
-138 -18 -164 7 -15 16 -15 17 5 17 46 0 113 86 113 147 0 15 -11 63 -24 107
-13 45 -27 106 -31 136 -9 80 -50 114 -89 75z m-362 -131 c14 -35 -45 -199
-92 -254 -20 -23 -21 -24 -23 -5 -3 50 4 104 22 160 28 92 76 143 93 99z m402
-46 c21 -41 27 -68 28 -121 0 -59 -3 -70 -24 -92 -14 -13 -37 -27 -53 -30 -25
-7 -29 -4 -48 41 -17 37 -19 51 -10 63 24 34 61 118 67 154 4 20 8 37 10 37 2
0 16 -24 30 -52z"/>
<path d="M14244 1794 c-10 -14 -20 -55 -23 -92 -8 -81 -60 -184 -135 -268 -78
-88 -145 -109 -185 -58 -23 30 -28 104 -11 164 8 29 7 37 -7 48 -36 26 -52 11
-82 -74 -54 -156 -119 -215 -157 -142 -35 68 4 234 71 301 50 49 115 31 115
-32 0 -11 5 -23 10 -26 19 -12 40 17 40 54 0 76 -82 111 -164 71 -56 -27 -100
-80 -131 -160 -38 -97 -101 -177 -167 -211 -45 -23 -70 -24 -108 -4 -38 20
-44 47 -36 159 13 166 14 158 -16 175 -41 24 -56 8 -103 -105 -67 -162 -97
-216 -112 -201 -6 7 -6 21 -3 139 2 68 -1 93 -14 113 -35 54 -77 25 -159 -112
-45 -74 -119 -159 -158 -178 -36 -19 -79 -19 -106 0 -34 24 -47 78 -39 164 4
42 8 87 9 101 2 19 -3 26 -21 28 -37 6 -49 -14 -62 -101 -11 -72 -10 -90 4
-139 9 -31 29 -69 44 -86 52 -55 143 -61 209 -14 61 44 102 95 183 225 19 31
38 57 43 57 4 0 6 -53 5 -119 -3 -105 -1 -121 16 -140 44 -49 107 -3 154 113
16 39 33 80 37 91 6 14 11 -4 15 -60 11 -126 45 -172 134 -182 59 -7 141 31
191 89 27 32 35 37 35 22 1 -38 38 -103 69 -118 51 -27 71 -20 132 43 l56 59
16 -34 c20 -41 70 -74 115 -74 81 0 186 98 265 248 l47 89 47 6 c27 3 49 4 50
3 1 -1 -2 -20 -8 -42 -6 -21 -9 -71 -7 -110 8 -117 55 -174 150 -182 47 -3 58
0 103 30 78 52 166 182 169 250 2 52 -17 41 -64 -39 -133 -225 -280 -243 -280
-33 0 33 7 77 15 97 19 46 19 97 0 113 -19 15 -73 16 -88 1 -23 -23 -40 -12
-33 20 8 40 -17 88 -46 89 -4 0 -15 -12 -24 -26z"/>
<path d="M6076 1756 c-20 -18 -48 -60 -63 -92 -25 -54 -28 -70 -28 -172 0
-107 -1 -113 -21 -118 -40 -10 -77 1 -98 29 -17 23 -20 41 -19 103 0 41 4 99
8 129 6 49 4 54 -16 60 -31 10 -44 -9 -68 -98 -26 -96 -62 -168 -96 -195 -71
-56 -97 49 -54 217 24 95 21 114 -18 109 -26 -3 -30 -9 -53 -94 -28 -103 -71
-175 -154 -257 -60 -60 -126 -97 -174 -97 -31 0 -32 1 -32 44 0 47 59 266 86
317 21 42 11 77 -24 85 -15 4 -39 16 -54 27 -20 15 -37 19 -70 15 -134 -15
-255 -152 -266 -301 -7 -97 29 -148 107 -149 47 0 74 13 130 66 24 22 41 37
38 31 -3 -5 -22 -107 -43 -225 -41 -237 -50 -415 -25 -499 28 -98 109 -137
182 -88 113 74 131 363 37 587 l-15 35 59 35 c57 33 178 142 178 161 0 22 20
6 30 -26 26 -78 113 -101 170 -44 17 17 39 47 48 66 l18 35 19 -42 c36 -80
111 -116 183 -88 35 14 39 13 68 -9 18 -13 56 -29 87 -35 47 -10 61 -9 103 6
66 25 152 115 198 207 60 120 39 169 -24 56 -19 -34 -62 -89 -95 -123 -49 -50
-69 -63 -111 -73 -43 -10 -57 -10 -88 3 l-36 15 49 73 c59 88 101 192 101 248
0 33 -6 48 -29 71 -41 40 -79 39 -125 -5z m88 -52 c14 -36 -37 -176 -88 -243
-28 -38 -30 -35 -26 43 6 118 89 265 114 200z m-993 -4 c42 -23 12 -152 -59
-245 -46 -62 -98 -90 -137 -75 -27 10 -28 12 -23 78 3 37 13 82 22 100 27 52
87 113 131 133 48 22 42 21 66 9z m92 -568 c59 -159 63 -315 11 -418 -50 -101
-109 -97 -135 9 -14 59 -7 220 16 354 21 122 22 123 55 123 25 0 30 -6 53 -68z"/>
<path d="M11621 1739 c-51 -26 -102 -92 -131 -171 -24 -67 -94 -165 -144 -203
-19 -15 -53 -29 -75 -32 -35 -5 -44 -2 -72 26 l-32 32 6 134 c5 121 4 135 -13
150 -26 24 -71 16 -87 -15 -7 -14 -34 -79 -59 -145 -68 -177 -74 -178 -74 -14
0 121 -2 138 -19 153 -11 10 -31 16 -48 14 -31 -3 -30 -2 -111 -178 -27 -58
-56 -111 -65 -119 -16 -12 -17 -4 -17 111 0 112 -2 128 -21 152 -11 14 -26 26
-33 26 -18 0 -69 -58 -110 -127 -44 -74 -118 -158 -157 -178 -36 -19 -79 -19
-106 0 -34 24 -47 78 -39 164 4 42 8 87 9 101 2 19 -3 26 -21 28 -37 6 -49
-14 -62 -101 -11 -72 -10 -90 4 -139 9 -31 29 -69 44 -86 52 -56 143 -61 210
-13 42 30 122 120 140 159 9 17 19 32 23 32 4 0 17 16 28 36 12 20 24 34 27
31 3 -3 5 -64 5 -135 -2 -114 1 -132 18 -153 42 -52 101 10 172 180 56 136 69
132 69 -25 0 -101 2 -116 20 -134 25 -25 31 -25 63 0 38 30 61 73 101 190 20
57 39 107 42 110 3 3 3 -31 -1 -76 -14 -159 26 -245 120 -260 61 -9 139 29
198 97 l44 50 12 -40 c17 -58 49 -91 94 -98 37 -6 41 -3 96 55 l58 60 16 -34
c20 -42 70 -74 115 -74 46 0 88 24 150 83 l52 51 0 -32 c0 -94 98 -153 173
-104 15 10 38 33 51 51 l23 31 7 -31 c3 -17 6 -59 6 -93 0 -58 -2 -64 -53
-131 -102 -136 -186 -333 -208 -487 -17 -114 -7 -172 37 -216 31 -31 38 -33
72 -27 82 15 145 88 190 221 26 76 27 88 28 324 l2 245 41 36 c62 56 55 92
-12 58 l-40 -21 6 129 c4 103 11 147 36 228 17 55 31 108 31 118 0 27 -46 22
-66 -8 -17 -26 -17 -26 -38 -6 -30 28 -76 43 -112 36 -43 -8 -90 -62 -144
-164 -48 -89 -125 -183 -171 -206 -74 -39 -129 -1 -129 89 0 28 5 67 10 86 8
29 7 37 -7 48 -36 26 -52 11 -82 -74 -54 -156 -119 -215 -157 -142 -35 68 4
234 71 301 50 49 115 31 115 -32 0 -11 5 -23 10 -26 19 -12 40 17 40 54 0 76
-86 112 -169 70z m678 -72 c6 -8 14 -29 18 -48 3 -19 10 -37 15 -40 12 -8 -35
-129 -74 -192 -32 -50 -76 -81 -102 -71 -24 9 -30 51 -19 130 22 151 114 278
162 221z m12 -922 c-17 -166 -62 -280 -124 -315 -25 -14 -28 -13 -49 8 -21 21
-23 31 -22 120 1 80 7 113 32 189 34 99 73 183 131 278 l36 60 3 -120 c2 -66
-2 -165 -7 -220z"/>
<path d="M7005 1721 c-37 -22 -76 -67 -112 -128 l-26 -45 -19 51 c-20 53 -54
86 -80 76 -20 -8 -78 -106 -78 -132 0 -12 5 -25 12 -29 12 -7 21 3 51 57 16
28 20 31 33 18 8 -8 19 -40 26 -70 11 -54 11 -56 -40 -174 -120 -285 -205
-613 -187 -731 10 -67 48 -105 111 -111 40 -4 54 -1 77 17 84 67 127 274 127
616 l0 163 37 -15 c70 -30 137 -1 195 83 70 103 90 221 49 300 -34 67 -115 92
-176 54z m114 -67 c24 -30 26 -60 10 -136 -23 -107 -76 -178 -135 -178 -31 0
-74 30 -74 52 0 5 -8 8 -17 6 -55 -9 8 163 90 244 47 48 94 52 126 12z m-299
-783 c-21 -181 -60 -287 -114 -306 -43 -15 -56 11 -56 113 0 140 47 333 133
552 l42 105 3 -185 c2 -102 -2 -227 -8 -279z"/>
</g>
</svg>
